{"glyphs":{"0":{"x_min":48,"x_max":648,"ha":696,"o":"m 460 365 l 460 365 q 460 502 434 558 q 409 614 348 614 l 348 614 q 288 614 262 558 q 236 502 236 365 l 236 365 q 236 227 262 170 q 288 114 348 114 l 348 114 q 408 114 434 170 q 460 227 460 365 z m 648 364 l 648 364 q 648 183 570 84 q 492 -14 348 -14 l 348 -14 q 204 -14 126 84 q 48 183 48 364 l 48 364 q 48 545 126 644 q 204 742 348 742 l 348 742 q 492 742 570 644 q 648 545 648 364 z"},"1":{"x_min":113,"x_max":627,"ha":696,"o":"m 117 0 l 117 130 l 283 130 l 283 601 l 113 566 l 113 694 l 282 729 l 461 729 l 461 130 l 627 130 l 627 0 l 117 0 z"},"2":{"x_min":79,"x_max":609,"ha":696,"o":"m 444 275 l 288 138 l 609 138 l 609 0 l 79 0 l 79 138 l 345 373 q 381 405 398 436 q 415 467 415 500 l 415 500 q 415 551 381 583 q 346 614 289 614 l 289 614 q 245 614 193 595 q 141 576 81 539 l 81 539 l 81 699 q 145 720 207 731 q 269 742 328 742 l 328 742 q 459 742 531 685 q 604 627 604 524 l 604 524 q 604 464 573 413 q 542 361 444 275 l 444 275 z"},"3":{"x_min":67,"x_max":616,"ha":696,"o":"m 466 393 l 466 393 q 540 374 578 327 q 616 280 616 207 l 616 207 q 616 99 533 42 q 450 -14 291 -14 l 291 -14 q 235 -14 178 -5 q 122 4 67 22 l 67 22 l 67 167 q 120 141 172 127 q 224 114 274 114 l 274 114 q 349 114 388 140 q 428 166 428 214 l 428 214 q 428 264 387 289 q 347 315 267 315 l 267 315 l 192 315 l 192 436 l 271 436 q 342 436 376 458 q 411 480 411 526 l 411 526 q 411 568 377 591 q 344 614 282 614 l 282 614 q 237 614 190 604 q 144 593 98 573 l 98 573 l 98 711 q 154 727 208 734 q 263 742 316 742 l 316 742 q 458 742 529 696 q 599 649 599 555 l 599 555 q 599 491 565 450 q 532 410 466 393 z"},"4":{"x_min":45,"x_max":650,"ha":696,"o":"m 368 269 l 368 574 l 162 269 l 368 269 z m 45 294 l 337 729 l 546 729 l 546 269 l 650 269 l 650 133 l 546 133 l 546 0 l 368 0 l 368 133 l 45 133 l 45 294 z"},"5":{"x_min":77,"x_max":626,"ha":696,"o":"m 106 319 l 106 729 l 573 729 l 573 591 l 256 591 l 256 478 q 277 484 299 487 q 321 490 344 490 l 344 490 q 478 490 552 424 q 626 357 626 238 l 626 238 q 626 120 545 53 q 464 -14 321 -14 l 321 -14 q 259 -14 198 -2 q 137 10 77 34 l 77 34 l 77 182 q 137 148 190 131 q 244 114 291 114 l 291 114 q 359 114 399 147 q 438 181 438 238 l 438 238 q 438 295 399 329 q 359 362 291 362 l 291 362 q 250 362 205 351 q 159 341 106 319 l 106 319 z"},"6":{"x_min":62,"x_max":642,"ha":696,"o":"m 362 360 l 362 360 q 313 360 288 328 q 263 296 263 232 l 263 232 q 263 168 288 136 q 313 104 362 104 l 362 104 q 412 104 436 136 q 461 168 461 232 l 461 232 q 461 296 436 328 q 412 360 362 360 z m 594 710 l 594 710 l 594 575 q 548 597 507 608 q 466 618 427 618 l 427 618 q 343 618 296 572 q 249 525 241 433 l 241 433 q 273 457 311 469 q 349 481 393 481 l 393 481 q 505 481 573 416 q 642 350 642 244 l 642 244 q 642 127 565 56 q 489 -14 360 -14 l 360 -14 q 218 -14 140 82 q 62 178 62 354 l 62 354 q 62 535 153 638 q 244 741 403 741 l 403 741 q 453 741 500 733 q 548 726 594 710 z"},"7":{"x_min":67,"x_max":616,"ha":696,"o":"m 67 591 l 67 729 l 616 729 l 616 623 l 332 0 l 149 0 l 418 591 l 67 591 z"},"8":{"x_min":61,"x_max":634,"ha":696,"o":"m 348 326 l 348 326 q 295 326 267 297 q 239 269 239 215 l 239 215 q 239 161 267 133 q 295 104 348 104 l 348 104 q 400 104 428 133 q 456 161 456 215 l 456 215 q 456 269 428 298 q 400 326 348 326 z m 211 388 l 211 388 q 145 408 111 450 q 77 491 77 553 l 77 553 q 77 646 146 694 q 215 742 348 742 l 348 742 q 480 742 549 694 q 618 646 618 553 l 618 553 q 618 491 584 450 q 550 408 484 388 l 484 388 q 558 368 596 322 q 634 275 634 205 l 634 205 q 634 97 562 41 q 490 -14 348 -14 l 348 -14 q 206 -14 134 41 q 61 97 61 205 l 61 205 q 61 275 99 322 q 137 368 211 388 z m 255 534 l 255 534 q 255 491 279 467 q 303 444 348 444 l 348 444 q 392 444 416 467 q 440 491 440 534 l 440 534 q 440 578 416 601 q 392 624 348 624 l 348 624 q 303 624 279 601 q 255 577 255 534 z"},"9":{"x_min":52,"x_max":632,"ha":696,"o":"m 100 16 l 100 16 l 100 151 q 145 130 186 119 q 227 109 267 109 l 267 109 q 351 109 398 156 q 445 202 453 294 l 453 294 q 420 270 382 257 q 345 245 301 245 l 301 245 q 189 245 120 310 q 52 375 52 482 l 52 482 q 52 600 128 670 q 205 741 333 741 l 333 741 q 476 741 554 645 q 632 549 632 373 l 632 373 q 632 192 541 89 q 449 -14 290 -14 l 290 -14 q 239 -14 192 -7 q 145 1 100 16 z m 332 367 l 332 367 q 381 367 406 399 q 431 431 431 495 l 431 495 q 431 559 406 591 q 381 623 332 623 l 332 623 q 283 623 258 591 q 233 559 233 495 l 233 495 q 233 431 258 399 q 283 367 332 367 z"}," ":{"x_min":0,"x_max":0,"ha":348,"o":""},"!":{"x_min":140,"x_max":316,"ha":456,"o":"m 140 449 l 140 729 l 316 729 l 316 449 l 291 245 l 165 245 l 140 449 z m 140 0 l 140 174 l 316 174 l 316 0 l 140 0 z"},"\"":{"x_min":95,"x_max":426,"ha":521,"o":"m 310 729 l 426 729 l 426 458 l 310 458 l 310 729 z m 95 729 l 211 729 l 211 458 l 95 458 l 95 729 z"},"#":{"x_min":68,"x_max":770,"ha":838,"o":"m 336 718 l 445 718 l 398 530 l 527 530 l 574 718 l 682 718 l 635 530 l 770 530 l 770 426 l 609 426 l 575 292 l 714 292 l 714 187 l 550 187 l 503 0 l 395 0 l 442 187 l 313 187 l 266 0 l 157 0 l 204 187 l 68 187 l 68 292 l 228 292 l 262 426 l 124 426 l 124 530 l 289 530 l 336 718 z m 466 292 l 500 426 l 371 426 l 337 292 l 466 292 z"},"$":{"x_min":78,"x_max":628,"ha":696,"o":"m 388 1 l 388 -147 l 309 -147 l 309 0 q 248 2 190 14 q 133 25 79 45 l 79 45 l 79 173 q 135 144 193 129 q 250 113 309 111 l 309 111 l 309 263 l 293 266 q 176 287 127 331 q 78 375 78 457 l 78 457 q 78 544 138 594 q 198 643 309 647 l 309 647 l 309 760 l 388 760 l 388 649 q 437 645 486 637 q 535 628 584 615 l 584 615 l 584 491 q 535 512 486 523 q 438 535 388 537 l 388 537 l 388 397 l 404 394 q 528 375 578 329 q 628 283 628 194 l 628 194 q 628 104 568 56 q 509 8 388 1 l 388 1 z m 309 408 l 309 408 l 309 536 q 274 534 254 517 q 233 500 233 474 l 233 474 q 233 445 252 429 q 271 413 309 408 z m 388 249 l 388 249 l 388 113 q 431 114 452 130 q 473 146 473 178 l 473 178 q 473 211 454 228 q 434 244 388 249 z"},"%":{"x_min":32,"x_max":970,"ha":1002,"o":"m 775 301 l 775 301 q 740 301 721 271 q 702 241 702 185 l 702 185 q 702 129 721 99 q 740 69 775 69 l 775 69 q 810 69 829 99 q 847 129 847 185 l 847 185 q 847 241 828 271 q 810 301 775 301 z m 775 383 l 775 383 q 866 383 918 330 q 970 277 970 185 l 970 185 q 970 93 918 39 q 866 -14 775 -14 l 775 -14 q 684 -14 632 39 q 579 93 579 185 l 579 185 q 579 277 632 330 q 684 383 775 383 z m 783 742 l 327 -14 l 219 -14 l 675 742 l 783 742 z m 227 742 l 227 742 q 318 742 370 689 q 422 636 422 544 l 422 544 q 422 452 370 398 q 318 345 227 345 l 227 345 q 136 345 84 398 q 32 452 32 544 l 32 544 q 32 636 84 689 q 136 742 227 742 z m 227 660 l 227 660 q 192 660 173 630 q 154 600 154 544 l 154 544 q 154 488 173 457 q 192 427 227 427 l 227 427 q 262 427 281 457 q 300 488 300 544 l 300 544 q 300 600 281 630 q 262 660 227 660 z"},"&":{"x_min":60,"x_max":830,"ha":872,"o":"m 390 484 l 390 484 l 590 264 q 616 298 629 341 q 643 383 645 437 l 645 437 l 797 437 q 790 348 762 279 q 735 209 687 157 l 687 157 l 830 0 l 623 0 l 575 53 q 524 19 467 2 q 411 -14 347 -14 l 347 -14 q 219 -14 139 53 q 60 121 60 228 l 60 228 q 60 299 95 354 q 130 409 209 461 l 209 461 q 188 487 179 513 q 169 539 169 567 l 169 567 q 169 646 231 694 q 293 742 396 742 l 396 742 q 440 742 489 735 q 537 728 589 714 l 589 714 l 589 578 q 543 602 502 613 q 461 624 422 624 l 422 624 q 384 624 364 610 q 343 595 343 569 l 343 569 q 343 552 355 531 q 367 510 390 484 z m 484 152 l 293 363 q 261 340 245 311 q 229 282 229 247 l 229 247 q 229 191 271 151 q 312 112 370 112 l 370 112 q 403 112 431 122 q 459 132 484 152 l 484 152 z"},"'":{"x_min":95,"x_max":211,"ha":306,"o":"m 95 729 l 211 729 l 211 458 l 95 458 l 95 729 z"},"(":{"x_min":86,"x_max":377,"ha":457,"o":"m 377 -132 l 377 -132 l 232 -132 q 157 -11 122 97 q 86 206 86 313 l 86 313 q 86 420 122 530 q 158 639 232 759 l 232 759 l 377 759 q 314 643 283 532 q 252 422 252 314 l 252 314 q 252 206 283 95 q 314 -16 377 -132 z"},")":{"x_min":80,"x_max":371,"ha":457,"o":"m 225 -132 l 80 -132 q 143 -16 174 95 q 205 206 205 314 l 205 314 q 205 422 174 532 q 143 643 80 759 l 80 759 l 225 759 q 299 639 335 530 q 371 420 371 313 l 371 313 q 371 206 335 97 q 300 -11 225 -132 l 225 -132 z"},"*":{"x_min":20,"x_max":503,"ha":523,"o":"m 466 663 l 503 594 l 342 510 l 503 425 l 466 356 l 303 446 l 303 278 l 220 278 l 220 446 l 57 356 l 20 425 l 183 510 l 20 594 l 57 663 l 220 574 l 220 742 l 303 742 l 303 574 l 466 663 z"},"+":{"x_min":106,"x_max":732,"ha":838,"o":"m 361 627 l 477 627 l 477 371 l 732 371 l 732 256 l 477 256 l 477 0 l 361 0 l 361 256 l 106 256 l 106 371 l 361 371 l 361 627 z"},",":{"x_min":53,"x_max":278,"ha":380,"o":"m 102 40 l 102 189 l 278 189 l 278 40 l 157 -142 l 53 -142 l 102 40 z"},"-":{"x_min":54,"x_max":361,"ha":415,"o":"m 54 217 l 54 359 l 361 359 l 361 217 l 54 217 z"},".":{"x_min":102,"x_max":278,"ha":380,"o":"m 102 0 l 102 189 l 278 189 l 278 0 l 102 0 z"},"/":{"x_min":0,"x_max":365,"ha":365,"o":"m 0 -93 l 257 729 l 365 729 l 108 -93 l 0 -93 z"},":":{"x_min":112,"x_max":288,"ha":400,"o":"m 112 358 l 112 547 l 288 547 l 288 358 l 112 358 z m 112 0 l 112 189 l 288 189 l 288 0 l 112 0 z"},";":{"x_min":63,"x_max":288,"ha":400,"o":"m 112 40 l 112 189 l 288 189 l 288 40 l 167 -142 l 63 -142 l 112 40 z m 112 358 l 112 547 l 288 547 l 288 358 l 112 358 z"},"<":{"x_min":106,"x_max":732,"ha":838,"o":"m 732 597 l 732 475 l 261 313 l 732 152 l 732 30 l 106 256 l 106 371 l 732 597 z"},"=":{"x_min":106,"x_max":732,"ha":838,"o":"m 106 367 l 106 482 l 732 482 l 732 367 l 106 367 z m 106 144 l 106 260 l 732 260 l 732 144 l 106 144 z"},">":{"x_min":106,"x_max":732,"ha":838,"o":"m 577 313 l 106 475 l 106 597 l 732 371 l 732 256 l 106 30 l 106 152 l 577 313 z"},"?":{"x_min":69,"x_max":515,"ha":580,"o":"m 346 268 l 346 246 l 170 246 l 170 270 q 170 310 186 341 q 202 372 254 420 l 254 420 l 285 448 q 313 474 326 496 q 339 519 339 541 l 339 541 q 339 575 315 594 q 292 614 250 614 l 250 614 q 210 614 165 597 q 119 581 69 549 l 69 549 l 69 702 q 128 723 177 732 q 226 742 271 742 l 271 742 q 390 742 453 694 q 515 645 515 552 l 515 552 q 515 504 496 466 q 477 428 431 385 l 431 385 l 400 357 q 367 327 356 308 q 346 290 346 268 l 346 268 z m 170 0 l 170 174 l 346 174 l 346 0 l 170 0 z"},"@":{"x_min":66,"x_max":929,"ha":1000,"o":"m 406 263 l 406 263 q 406 203 431 168 q 457 134 501 134 l 501 134 q 544 134 570 169 q 596 204 596 263 l 596 263 q 596 322 570 357 q 544 391 500 391 l 500 391 q 457 391 431 357 q 406 322 406 263 z m 606 41 l 606 116 q 591 82 559 62 q 526 43 483 43 l 483 43 q 399 43 346 104 q 294 165 294 262 l 294 262 q 294 360 347 421 q 399 482 483 482 l 483 482 q 526 482 559 462 q 591 443 606 408 l 606 408 l 606 472 l 708 472 l 708 134 q 769 143 803 192 q 838 241 838 318 l 838 318 q 838 367 824 409 q 810 452 781 488 l 781 488 q 734 547 665 580 q 595 612 514 612 l 514 612 q 458 612 406 597 q 354 582 310 553 l 310 553 q 238 505 198 429 q 157 354 157 265 l 157 265 q 157 192 183 129 q 209 65 259 16 l 259 16 q 308 -32 371 -57 q 434 -82 506 -82 l 506 -82 q 567 -82 629 -59 q 690 -36 734 3 l 734 3 l 786 -76 q 725 -124 653 -149 q 581 -174 507 -174 l 507 -174 q 417 -174 336 -142 q 256 -110 194 -49 l 194 -49 q 131 12 99 93 q 66 173 66 265 l 66 265 q 66 354 99 435 q 132 515 194 576 l 194 576 q 255 637 337 670 q 419 703 507 703 l 507 703 q 616 703 706 661 q 795 620 855 541 l 855 541 q 892 493 910 437 q 929 381 929 320 l 929 320 q 929 188 850 114 q 770 41 625 41 l 625 41 l 606 41 z"},"A":{"x_min":5,"x_max":769,"ha":774,"o":"m 580 0 l 534 133 l 240 133 l 194 0 l 5 0 l 275 729 l 499 729 l 769 0 l 580 0 z m 387 558 l 287 268 l 487 268 l 387 558 z"},"B":{"x_min":92,"x_max":692,"ha":762,"o":"m 280 447 l 384 447 q 428 447 451 466 q 474 486 474 524 l 474 524 q 474 562 451 581 q 428 601 384 601 l 384 601 l 280 601 l 280 447 z m 280 128 l 390 128 q 447 128 475 152 q 504 176 504 224 l 504 224 q 504 271 476 295 q 447 319 390 319 l 390 319 l 280 319 l 280 128 z m 565 390 l 565 390 q 625 373 659 325 q 692 278 692 209 l 692 209 q 692 104 621 52 q 549 0 404 0 l 404 0 l 92 0 l 92 729 l 374 729 q 526 729 594 683 q 662 637 662 536 l 662 536 q 662 483 637 446 q 612 408 565 390 z"},"C":{"x_min":50,"x_max":670,"ha":734,"o":"m 670 191 l 670 40 q 618 13 562 0 q 506 -14 445 -14 l 445 -14 q 263 -14 156 88 q 50 189 50 364 l 50 364 q 50 539 156 640 q 263 742 445 742 l 445 742 q 506 742 562 729 q 618 715 670 688 l 670 688 l 670 537 q 618 573 567 589 q 516 606 460 606 l 460 606 q 359 606 302 542 q 244 477 244 364 l 244 364 q 244 251 302 187 q 359 122 460 122 l 460 122 q 516 122 567 139 q 618 155 670 191 l 670 191 z"},"D":{"x_min":92,"x_max":778,"ha":830,"o":"m 347 587 l 280 587 l 280 142 l 347 142 q 462 142 523 199 q 584 256 584 365 l 584 365 q 584 474 523 530 q 463 587 347 587 l 347 587 z m 92 0 l 92 729 l 290 729 q 456 729 537 705 q 619 682 677 625 l 677 625 q 728 576 753 511 q 778 447 778 365 l 778 365 q 778 283 753 218 q 728 153 677 104 l 677 104 q 618 47 536 24 q 454 0 290 0 l 290 0 l 92 0 z"},"E":{"x_min":92,"x_max":610,"ha":683,"o":"m 92 0 l 92 729 l 599 729 l 599 587 l 280 587 l 280 451 l 580 451 l 580 309 l 280 309 l 280 142 l 610 142 l 610 0 l 92 0 z"},"F":{"x_min":92,"x_max":599,"ha":683,"o":"m 92 0 l 92 729 l 599 729 l 599 587 l 280 587 l 280 451 l 580 451 l 580 309 l 280 309 l 280 0 l 92 0 z"},"G":{"x_min":50,"x_max":747,"ha":821,"o":"m 747 405 l 747 54 q 677 20 601 3 q 525 -14 445 -14 l 445 -14 q 263 -14 156 88 q 50 189 50 364 l 50 364 q 50 540 158 641 q 267 742 455 742 l 455 742 q 528 742 594 729 q 661 715 720 688 l 720 688 l 720 537 q 659 572 599 589 q 539 606 478 606 l 478 606 q 366 606 305 543 q 244 480 244 364 l 244 364 q 244 248 303 185 q 361 122 469 122 l 469 122 q 499 122 524 126 q 549 129 569 137 l 569 137 l 569 279 l 454 279 l 454 405 l 747 405 z"},"H":{"x_min":92,"x_max":745,"ha":837,"o":"m 92 0 l 92 729 l 280 729 l 280 451 l 557 451 l 557 729 l 745 729 l 745 0 l 557 0 l 557 309 l 280 309 l 280 0 l 92 0 z"},"I":{"x_min":92,"x_max":280,"ha":372,"o":"m 92 0 l 92 729 l 280 729 l 280 0 l 92 0 z"},"J":{"x_min":-56,"x_max":280,"ha":372,"o":"m 92 71 l 92 729 l 280 729 l 280 71 q 280 -65 206 -133 q 132 -200 -18 -200 l -18 -200 l -56 -200 l -56 -58 l -27 -58 q 32 -58 62 -25 q 92 7 92 71 l 92 71 z"},"K":{"x_min":92,"x_max":805,"ha":775,"o":"m 92 0 l 92 729 l 280 729 l 280 463 l 551 729 l 769 729 l 418 384 l 805 0 l 570 0 l 280 287 l 280 0 l 92 0 z"},"L":{"x_min":92,"x_max":610,"ha":637,"o":"m 92 0 l 92 729 l 280 729 l 280 142 l 610 142 l 610 0 l 92 0 z"},"M":{"x_min":92,"x_max":903,"ha":995,"o":"m 92 0 l 92 729 l 331 729 l 497 339 l 664 729 l 903 729 l 903 0 l 725 0 l 725 533 l 557 140 l 438 140 l 270 533 l 270 0 l 92 0 z"},"N":{"x_min":92,"x_max":745,"ha":837,"o":"m 92 0 l 92 729 l 302 729 l 567 229 l 567 729 l 745 729 l 745 0 l 535 0 l 270 500 l 270 0 l 92 0 z"},"O":{"x_min":50,"x_max":800,"ha":850,"o":"m 425 606 l 425 606 q 339 606 292 542 q 244 479 244 364 l 244 364 q 244 249 292 186 q 339 122 425 122 l 425 122 q 511 122 559 186 q 606 249 606 364 l 606 364 q 606 479 559 542 q 511 606 425 606 z m 425 742 l 425 742 q 601 742 700 642 q 800 541 800 364 l 800 364 q 800 187 700 86 q 601 -14 425 -14 l 425 -14 q 250 -14 150 86 q 50 187 50 364 l 50 364 q 50 541 150 642 q 250 742 425 742 z"},"P":{"x_min":92,"x_max":692,"ha":733,"o":"m 92 0 l 92 729 l 404 729 q 543 729 617 667 q 692 605 692 491 l 692 491 q 692 376 617 315 q 543 253 404 253 l 404 253 l 280 253 l 280 0 l 92 0 z m 384 593 l 280 593 l 280 389 l 384 389 q 438 389 468 416 q 498 442 498 491 l 498 491 q 498 540 468 566 q 438 593 384 593 l 384 593 z"},"Q":{"x_min":50,"x_max":800,"ha":850,"o":"m 564 -146 l 445 -13 l 430 -13 q 250 -13 150 86 q 50 186 50 364 l 50 364 q 50 541 150 642 q 250 742 425 742 l 425 742 q 602 742 701 643 q 800 543 800 364 l 800 364 q 800 241 747 152 q 695 63 596 18 l 596 18 l 743 -146 l 564 -146 z m 425 606 l 425 606 q 339 606 292 542 q 244 479 244 364 l 244 364 q 244 247 291 184 q 337 122 425 122 l 425 122 q 511 122 559 186 q 606 249 606 364 l 606 364 q 606 479 559 542 q 511 606 425 606 z"},"R":{"x_min":92,"x_max":750,"ha":770,"o":"m 280 406 l 359 406 q 418 406 444 428 q 469 450 469 500 l 469 500 q 469 550 444 571 q 418 593 359 593 l 359 593 l 280 593 l 280 406 z m 333 276 l 280 276 l 280 0 l 92 0 l 92 729 l 379 729 q 523 729 590 681 q 657 632 657 528 l 657 528 q 657 456 622 409 q 587 363 517 341 l 517 341 q 556 332 586 301 q 617 270 648 207 l 648 207 l 750 0 l 550 0 l 461 181 q 434 236 406 256 q 379 276 333 276 l 333 276 z"},"S":{"x_min":72,"x_max":647,"ha":720,"o":"m 599 706 l 599 706 l 599 552 q 539 579 482 592 q 425 606 374 606 l 374 606 q 307 606 274 587 q 242 569 242 530 l 242 530 q 242 500 264 484 q 286 468 343 456 l 343 456 l 423 440 q 544 416 596 366 q 647 316 647 224 l 647 224 q 647 104 575 45 q 504 -14 357 -14 l 357 -14 q 288 -14 218 -1 q 148 12 78 38 l 78 38 l 78 197 q 148 160 213 141 q 278 122 339 122 l 339 122 q 400 122 433 143 q 466 163 466 201 l 466 201 q 466 235 444 254 q 421 272 355 287 l 355 287 l 282 303 q 173 327 122 378 q 72 429 72 516 l 72 516 q 72 625 142 684 q 212 742 344 742 l 344 742 q 404 742 468 733 q 531 724 599 706 z"},"T":{"x_min":5,"x_max":677,"ha":682,"o":"m 5 587 l 5 729 l 677 729 l 677 587 l 435 587 l 435 0 l 247 0 l 247 587 l 5 587 z"},"U":{"x_min":92,"x_max":720,"ha":812,"o":"m 92 292 l 92 729 l 280 729 l 280 292 q 280 202 309 163 q 339 124 406 124 l 406 124 q 473 124 503 163 q 532 202 532 292 l 532 292 l 532 729 l 720 729 l 720 292 q 720 137 643 62 q 565 -14 406 -14 l 406 -14 q 247 -14 169 62 q 92 137 92 292 l 92 292 z"},"V":{"x_min":5,"x_max":769,"ha":774,"o":"m 275 0 l 5 729 l 194 729 l 387 191 l 580 729 l 769 729 l 499 0 l 275 0 z"},"W":{"x_min":30,"x_max":1072,"ha":1103,"o":"m 203 0 l 30 729 l 210 729 l 336 199 l 461 729 l 642 729 l 767 199 l 893 729 l 1072 729 l 900 0 l 683 0 l 551 554 l 420 0 l 203 0 z"},"X":{"x_min":19,"x_max":751,"ha":771,"o":"m 741 729 l 498 372 l 751 0 l 555 0 l 385 249 l 216 0 l 19 0 l 272 372 l 29 729 l 225 729 l 385 494 l 544 729 l 741 729 z"},"Y":{"x_min":-10,"x_max":734,"ha":724,"o":"m 268 307 l -10 729 l 196 729 l 362 469 l 528 729 l 734 729 l 456 307 l 456 0 l 268 0 l 268 307 z"},"Z":{"x_min":45,"x_max":680,"ha":725,"o":"m 56 587 l 56 729 l 669 729 l 669 615 l 278 142 l 680 142 l 680 0 l 45 0 l 45 114 l 436 587 l 56 587 z"},"[":{"x_min":86,"x_max":389,"ha":457,"o":"m 86 -132 l 86 760 l 389 760 l 389 650 l 252 650 l 252 -22 l 389 -22 l 389 -132 l 86 -132 z"},"\\":{"x_min":0,"x_max":365,"ha":365,"o":"m 365 -93 l 257 -93 l 0 729 l 108 729 l 365 -93 z"},"]":{"x_min":68,"x_max":371,"ha":457,"o":"m 371 760 l 371 -132 l 68 -132 l 68 -22 l 205 -22 l 205 650 l 68 650 l 68 760 l 371 760 z"},"^":{"x_min":101,"x_max":737,"ha":838,"o":"m 359 729 l 479 729 l 737 457 l 619 457 l 419 604 l 219 457 l 101 457 l 359 729 z"},"_":{"x_min":0,"x_max":500,"ha":500,"o":"m 0 -143 l 500 -143 l 500 -236 l 0 -236 l 0 -143 z"},"`":{"x_min":46,"x_max":322,"ha":500,"o":"m 46 800 l 184 800 l 322 616 l 226 616 l 46 800 z"},"a":{"x_min":43,"x_max":596,"ha":675,"o":"m 420 246 l 329 246 q 274 246 247 228 q 219 209 219 173 l 219 173 q 219 140 241 121 q 264 102 303 102 l 303 102 q 353 102 386 137 q 420 173 420 226 l 420 226 l 420 246 z m 596 312 l 596 312 l 596 0 l 420 0 l 420 81 q 385 31 341 9 q 297 -14 234 -14 l 234 -14 q 149 -14 96 35 q 43 85 43 164 l 43 164 q 43 260 109 305 q 175 350 317 350 l 317 350 l 420 350 l 420 364 q 420 405 387 425 q 354 444 285 444 l 285 444 q 229 444 181 433 q 132 421 91 399 l 91 399 l 91 532 q 147 546 204 553 q 260 560 317 560 l 317 560 q 465 560 531 502 q 596 443 596 312 z"},"b":{"x_min":84,"x_max":671,"ha":716,"o":"m 375 113 l 375 113 q 431 113 461 154 q 490 195 490 273 l 490 273 q 490 351 461 392 q 431 433 375 433 l 375 433 q 319 433 289 392 q 259 351 259 273 l 259 273 q 259 195 289 154 q 319 113 375 113 z m 259 760 l 259 467 q 295 515 339 537 q 383 560 440 560 l 440 560 q 541 560 606 480 q 671 399 671 273 l 671 273 q 671 146 606 66 q 541 -14 440 -14 l 440 -14 q 383 -14 339 9 q 295 31 259 79 l 259 79 l 259 0 l 84 0 l 84 760 l 259 760 z"},"c":{"x_min":43,"x_max":526,"ha":593,"o":"m 526 530 l 526 530 l 526 387 q 490 412 454 423 q 418 435 380 435 l 380 435 q 307 435 266 392 q 225 350 225 273 l 225 273 q 225 196 266 154 q 307 111 380 111 l 380 111 q 421 111 458 123 q 495 135 526 159 l 526 159 l 526 16 q 485 1 443 -7 q 400 -14 358 -14 l 358 -14 q 210 -14 126 62 q 43 138 43 273 l 43 273 q 43 408 126 484 q 210 560 358 560 l 358 560 q 401 560 443 552 q 484 545 526 530 z"},"d":{"x_min":45,"x_max":632,"ha":716,"o":"m 456 467 l 456 467 l 456 760 l 632 760 l 632 0 l 456 0 l 456 79 q 420 31 376 8 q 333 -14 276 -14 l 276 -14 q 175 -14 110 66 q 45 146 45 273 l 45 273 q 45 399 110 480 q 175 560 276 560 l 276 560 q 333 560 376 537 q 420 515 456 467 z m 341 113 l 341 113 q 397 113 427 154 q 456 195 456 273 l 456 273 q 456 351 427 392 q 397 433 341 433 l 341 433 q 285 433 256 392 q 226 351 226 273 l 226 273 q 226 195 256 154 q 285 113 341 113 z"},"e":{"x_min":43,"x_max":630,"ha":678,"o":"m 630 275 l 630 275 l 630 225 l 221 225 q 228 164 266 133 q 304 102 372 102 l 372 102 q 427 102 485 118 q 543 135 604 168 l 604 168 l 604 33 q 542 10 480 -2 q 418 -14 356 -14 l 356 -14 q 208 -14 125 61 q 43 137 43 273 l 43 273 q 43 407 124 483 q 205 560 346 560 l 346 560 q 475 560 552 482 q 630 405 630 275 z m 223 333 l 450 333 q 450 383 421 413 q 392 444 345 444 l 345 444 q 294 444 263 415 q 231 387 223 333 l 223 333 z"},"f":{"x_min":19,"x_max":444,"ha":435,"o":"m 310 760 l 444 760 l 444 645 l 347 645 q 310 645 295 632 q 281 618 281 585 l 281 585 l 281 547 l 430 547 l 430 422 l 281 422 l 281 0 l 106 0 l 106 422 l 19 422 l 19 547 l 106 547 l 106 585 q 106 674 156 717 q 206 760 310 760 l 310 760 z"},"g":{"x_min":45,"x_max":632,"ha":716,"o":"m 456 55 l 456 93 q 420 45 376 22 q 333 0 276 0 l 276 0 q 176 0 110 79 q 45 158 45 280 l 45 280 q 45 402 110 481 q 176 559 276 559 l 276 559 q 333 559 376 537 q 420 514 456 466 l 456 466 l 456 547 l 632 547 l 632 55 q 632 -77 549 -146 q 465 -216 307 -216 l 307 -216 q 256 -216 208 -208 q 160 -200 112 -184 l 112 -184 l 112 -48 q 158 -74 202 -87 q 246 -100 290 -100 l 290 -100 q 376 -100 416 -62 q 456 -25 456 55 l 456 55 z m 341 433 l 341 433 q 287 433 256 393 q 226 353 226 280 l 226 280 q 226 205 255 166 q 285 127 341 127 l 341 127 q 396 127 426 167 q 456 207 456 280 l 456 280 q 456 353 426 393 q 396 433 341 433 z"},"h":{"x_min":84,"x_max":634,"ha":712,"o":"m 634 333 l 634 333 l 634 0 l 458 0 l 458 54 l 458 254 q 458 326 455 353 q 452 379 444 392 l 444 392 q 434 409 416 419 q 398 428 376 428 l 376 428 q 321 428 290 386 q 259 344 259 269 l 259 269 l 259 0 l 84 0 l 84 760 l 259 760 l 259 467 q 298 515 343 537 q 387 560 441 560 l 441 560 q 536 560 585 502 q 634 444 634 333 z"},"i":{"x_min":84,"x_max":259,"ha":343,"o":"m 84 0 l 84 547 l 259 547 l 259 0 l 84 0 z m 84 617 l 84 760 l 259 760 l 259 617 l 84 617 z"},"j":{"x_min":-33,"x_max":259,"ha":343,"o":"m 84 10 l 84 547 l 259 547 l 259 10 q 259 -100 206 -158 q 153 -216 53 -216 l 53 -216 l -33 -216 l -33 -101 l -3 -101 q 47 -101 65 -79 q 84 -56 84 10 l 84 10 z m 84 617 l 84 760 l 259 760 l 259 617 l 84 617 z"},"k":{"x_min":84,"x_max":684,"ha":665,"o":"m 84 0 l 84 760 l 259 760 l 259 346 l 460 547 l 663 547 l 396 296 l 684 0 l 472 0 l 259 228 l 259 0 l 84 0 z"},"l":{"x_min":84,"x_max":259,"ha":343,"o":"m 84 0 l 84 760 l 259 760 l 259 0 l 84 0 z"},"m":{"x_min":83,"x_max":963,"ha":1042,"o":"m 591 456 l 591 456 q 624 507 670 533 q 715 560 770 560 l 770 560 q 864 560 914 502 q 963 444 963 333 l 963 333 l 963 0 l 787 0 l 787 285 q 788 292 788 298 q 788 305 788 318 l 788 318 q 788 376 771 402 q 754 428 716 428 l 716 428 q 666 428 639 387 q 612 346 611 269 l 611 269 l 611 0 l 435 0 l 435 285 q 435 376 419 402 q 404 428 364 428 l 364 428 q 313 428 286 387 q 259 346 259 269 l 259 269 l 259 0 l 83 0 l 83 547 l 259 547 l 259 467 q 291 513 333 537 q 375 560 425 560 l 425 560 q 481 560 525 533 q 568 505 591 456 z"},"n":{"x_min":84,"x_max":634,"ha":712,"o":"m 634 333 l 634 333 l 634 0 l 458 0 l 458 54 l 458 255 q 458 326 455 353 q 452 379 444 392 l 444 392 q 434 409 416 419 q 398 428 376 428 l 376 428 q 321 428 290 386 q 259 344 259 269 l 259 269 l 259 0 l 84 0 l 84 547 l 259 547 l 259 467 q 298 515 343 537 q 387 560 441 560 l 441 560 q 536 560 585 502 q 634 444 634 333 z"},"o":{"x_min":43,"x_max":644,"ha":687,"o":"m 344 435 l 344 435 q 286 435 256 393 q 225 352 225 273 l 225 273 q 225 194 256 153 q 286 111 344 111 l 344 111 q 401 111 432 153 q 462 194 462 273 l 462 273 q 462 352 432 393 q 401 435 344 435 z m 344 560 l 344 560 q 485 560 565 484 q 644 408 644 273 l 644 273 q 644 138 565 62 q 485 -14 344 -14 l 344 -14 q 203 -14 123 62 q 43 138 43 273 l 43 273 q 43 408 123 484 q 203 560 344 560 z"},"p":{"x_min":84,"x_max":671,"ha":716,"o":"m 259 79 l 259 79 l 259 -208 l 84 -208 l 84 547 l 259 547 l 259 467 q 295 515 339 537 q 383 560 440 560 l 440 560 q 541 560 606 480 q 671 399 671 273 l 671 273 q 671 146 606 66 q 541 -14 440 -14 l 440 -14 q 383 -14 339 9 q 295 31 259 79 z m 375 433 l 375 433 q 319 433 289 392 q 259 351 259 273 l 259 273 q 259 195 289 154 q 319 113 375 113 l 375 113 q 431 113 461 154 q 490 195 490 273 l 490 273 q 490 351 461 392 q 431 433 375 433 z"},"q":{"x_min":45,"x_max":632,"ha":716,"o":"m 341 433 l 341 433 q 285 433 256 392 q 226 351 226 273 l 226 273 q 226 195 256 154 q 285 113 341 113 l 341 113 q 397 113 427 154 q 456 195 456 273 l 456 273 q 456 351 427 392 q 397 433 341 433 z m 456 -208 l 456 79 q 420 31 376 8 q 333 -14 276 -14 l 276 -14 q 175 -14 110 66 q 45 146 45 273 l 45 273 q 45 399 110 479 q 175 559 276 559 l 276 559 q 333 559 376 537 q 420 514 456 466 l 456 466 l 456 547 l 632 547 l 632 -208 l 456 -208 z"},"r":{"x_min":84,"x_max":490,"ha":493,"o":"m 490 556 l 490 398 q 467 409 445 414 q 422 419 399 419 l 399 419 q 332 419 295 376 q 259 333 259 252 l 259 252 l 259 0 l 84 0 l 84 547 l 259 547 l 259 457 q 292 511 336 535 q 380 560 441 560 l 441 560 q 450 560 460 559 q 470 559 490 556 l 490 556 z"},"s":{"x_min":52,"x_max":548,"ha":595,"o":"m 511 530 l 511 530 l 511 397 q 455 420 403 432 q 351 444 304 444 l 304 444 q 254 444 230 431 q 206 419 206 393 l 206 393 q 206 372 224 361 q 243 350 290 344 l 290 344 l 321 340 q 455 323 501 284 q 548 245 548 161 l 548 161 q 548 74 483 30 q 419 -14 291 -14 l 291 -14 q 237 -14 179 -6 q 121 3 60 20 l 60 20 l 60 153 q 112 127 167 115 q 222 102 279 102 l 279 102 q 330 102 356 116 q 382 130 382 158 l 382 158 q 382 182 364 193 q 346 205 293 211 l 293 211 l 262 215 q 146 229 99 269 q 52 309 52 389 l 52 389 q 52 476 111 518 q 171 560 294 560 l 294 560 q 342 560 396 553 q 449 545 511 530 z"},"t":{"x_min":13,"x_max":455,"ha":478,"o":"m 100 702 l 275 702 l 275 547 l 455 547 l 455 422 l 275 422 l 275 190 q 275 152 290 138 q 305 125 350 125 l 350 125 l 440 125 l 440 0 l 290 0 q 187 0 143 43 q 100 86 100 190 l 100 190 l 100 422 l 13 422 l 13 547 l 100 547 l 100 702 z"},"u":{"x_min":78,"x_max":628,"ha":712,"o":"m 78 213 l 78 213 l 78 547 l 254 547 l 254 492 q 254 448 253 381 q 253 313 253 291 l 253 291 q 253 225 256 196 q 260 167 268 154 l 268 154 q 279 137 296 127 q 313 118 336 118 l 336 118 q 391 118 422 160 q 453 202 453 277 l 453 277 l 453 547 l 628 547 l 628 0 l 453 0 l 453 79 q 414 31 369 9 q 325 -14 272 -14 l 272 -14 q 177 -14 128 44 q 78 102 78 213 z"},"v":{"x_min":15,"x_max":637,"ha":652,"o":"m 230 0 l 15 547 l 190 547 l 326 169 l 462 547 l 637 547 l 422 0 l 230 0 z"},"w":{"x_min":35,"x_max":889,"ha":924,"o":"m 179 0 l 35 547 l 205 547 l 297 170 l 389 547 l 535 547 l 627 174 l 719 547 l 889 547 l 745 0 l 554 0 l 462 376 l 370 0 l 179 0 z"},"x":{"x_min":15,"x_max":630,"ha":645,"o":"m 15 0 l 222 280 l 25 547 l 210 547 l 322 385 l 435 547 l 620 547 l 423 281 l 630 0 l 445 0 l 322 173 l 200 0 l 15 0 z"},"y":{"x_min":12,"x_max":634,"ha":652,"o":"m 256 -21 l 12 547 l 187 547 l 334 176 l 459 547 l 634 547 l 404 -52 q 369 -143 323 -179 q 277 -216 201 -216 l 201 -216 l 100 -216 l 100 -101 l 155 -101 q 199 -101 219 -87 q 240 -73 251 -36 l 251 -36 l 256 -21 z"},"z":{"x_min":45,"x_max":534,"ha":582,"o":"m 57 422 l 57 547 l 534 547 l 534 425 l 246 125 l 534 125 l 534 0 l 45 0 l 45 122 l 333 422 l 57 422 z"},"{":{"x_min":125,"x_max":587,"ha":712,"o":"m 553 -53 l 587 -53 l 587 -163 l 481 -163 q 375 -163 326 -120 q 277 -77 277 17 l 277 17 l 277 111 q 277 184 250 213 q 224 241 155 241 l 155 241 l 125 241 l 125 350 l 155 350 q 224 350 250 378 q 277 407 277 480 l 277 480 l 277 580 q 277 674 326 717 q 375 760 481 760 l 481 760 l 587 760 l 587 650 l 553 650 q 484 650 464 629 q 443 607 443 538 l 443 538 l 443 457 q 443 380 421 346 q 399 311 345 299 l 345 299 q 399 286 421 251 q 443 216 443 140 l 443 140 l 443 59 q 443 -11 464 -32 q 484 -53 553 -53 l 553 -53 z"},"|":{"x_min":127,"x_max":238,"ha":365,"o":"m 127 764 l 238 764 l 238 -236 l 127 -236 l 127 764 z"},"}":{"x_min":125,"x_max":587,"ha":712,"o":"m 125 -163 l 125 -53 l 159 -53 q 228 -53 248 -32 q 269 -11 269 59 l 269 59 l 269 140 q 269 216 291 251 q 313 286 367 299 l 367 299 q 313 311 291 346 q 269 380 269 457 l 269 457 l 269 538 q 269 607 248 629 q 228 650 159 650 l 159 650 l 125 650 l 125 760 l 231 760 q 337 760 386 717 q 435 674 435 580 l 435 580 l 435 480 q 435 407 461 378 q 488 350 557 350 l 557 350 l 587 350 l 587 241 l 557 241 q 488 241 461 213 q 435 184 435 111 l 435 111 l 435 17 q 435 -77 386 -120 q 337 -163 231 -163 l 231 -163 l 125 -163 z"},"~":{"x_min":106,"x_max":732,"ha":838,"o":"m 732 415 l 732 415 l 732 296 q 680 257 636 240 q 593 223 546 223 l 546 223 q 494 223 424 251 l 424 251 q 417 254 413 256 l 413 256 q 410 257 402 260 l 402 260 q 327 290 281 290 l 281 290 q 238 290 196 271 q 154 252 106 212 l 106 212 l 106 331 q 158 370 202 387 q 245 404 292 404 l 292 404 q 344 404 414 375 l 414 375 q 421 373 425 371 l 425 371 q 428 370 436 367 l 436 367 q 511 337 557 337 l 557 337 q 599 337 640 355 q 682 374 732 415 z"},"А":{"x_min":5,"x_max":769,"ha":774,"o":"m 580 0 l 534 133 l 240 133 l 194 0 l 5 0 l 275 729 l 499 729 l 769 0 l 580 0 z m 387 558 l 287 268 l 487 268 l 387 558 z"},"Б":{"x_min":92,"x_max":692,"ha":762,"o":"m 280 128 l 390 128 q 449 128 476 150 l 476 150 q 504 174 504 219 l 504 219 q 504 264 476 287 l 476 287 q 450 309 390 309 l 390 309 l 280 309 l 280 128 z m 404 0 l 404 0 l 92 0 l 92 729 l 643 729 l 643 587 l 280 587 l 280 451 l 404 451 q 542 451 621 394 l 621 394 q 692 342 692 225 l 692 225 q 692 109 621 57 l 621 57 q 542 0 404 0 z"},"В":{"x_min":92,"x_max":692,"ha":762,"o":"m 280 447 l 384 447 q 428 447 451 466 q 474 486 474 524 l 474 524 q 474 562 451 581 q 428 601 384 601 l 384 601 l 280 601 l 280 447 z m 280 128 l 390 128 q 447 128 475 152 q 504 176 504 224 l 504 224 q 504 271 476 295 q 447 319 390 319 l 390 319 l 280 319 l 280 128 z m 565 390 l 565 390 q 625 373 659 325 q 692 278 692 209 l 692 209 q 692 104 621 52 q 549 0 404 0 l 404 0 l 92 0 l 92 729 l 374 729 q 526 729 594 683 q 662 637 662 536 l 662 536 q 662 483 637 446 q 612 408 565 390 z"},"Г":{"x_min":92,"x_max":610,"ha":637,"o":"m 280 0 l 92 0 l 92 729 l 610 729 l 610 587 l 280 587 l 280 0 z"},"Д":{"x_min":60,"x_max":831,"ha":891,"o":"m 336 142 l 336 142 l 540 142 l 540 587 l 382 587 l 382 542 q 382 230 336 142 z m 60 142 l 115 142 q 166 176 180 225 q 194 275 194 591 l 194 591 l 194 729 l 728 729 l 728 142 l 831 142 l 831 -157 l 688 -157 l 688 0 l 202 0 l 202 -157 l 60 -157 l 60 142 z"},"Е":{"x_min":92,"x_max":610,"ha":683,"o":"m 92 0 l 92 729 l 599 729 l 599 587 l 280 587 l 280 451 l 580 451 l 580 309 l 280 309 l 280 142 l 610 142 l 610 0 l 92 0 z"},"Ё":{"x_min":92,"x_max":610,"ha":683,"o":"m 181 807 l 181 927 l 296 927 l 296 807 l 181 807 z m 374 807 l 374 927 l 489 927 l 489 807 l 374 807 z m 92 0 l 92 729 l 599 729 l 599 587 l 280 587 l 280 451 l 580 451 l 580 309 l 280 309 l 280 142 l 610 142 l 610 0 l 92 0 z"},"Ж":{"x_min":15,"x_max":1209,"ha":1224,"o":"m 222 0 l 15 0 l 313 437 l 46 729 l 244 729 l 518 428 l 518 729 l 706 729 l 706 428 l 980 729 l 1178 729 l 911 437 l 1209 0 l 1002 0 l 793 307 l 706 212 l 706 0 l 518 0 l 518 212 l 431 307 l 222 0 z"},"З":{"x_min":66,"x_max":645,"ha":710,"o":"m 494 393 l 494 393 q 568 374 606 327 q 645 280 645 207 l 645 207 q 645 99 562 42 q 479 -14 305 -14 l 305 -14 q 233 -14 176 -5 q 119 4 66 22 l 66 22 l 66 167 q 119 141 171 127 q 223 114 297 114 l 297 114 q 377 114 417 140 q 457 166 457 214 l 457 214 q 457 264 416 289 q 375 315 281 315 l 281 315 l 191 315 l 191 436 l 285 436 q 370 436 405 458 q 439 480 439 526 l 439 526 q 439 568 406 591 q 372 614 306 614 l 306 614 q 236 614 176 602 q 116 590 83 573 l 83 573 l 83 711 q 115 722 187 732 q 259 742 305 742 l 305 742 q 465 742 546 696 q 627 649 627 555 l 627 555 q 627 491 594 450 q 560 410 494 393 z"},"И":{"x_min":92,"x_max":745,"ha":837,"o":"m 535 729 l 745 729 l 745 0 l 567 0 l 567 500 l 302 0 l 92 0 l 92 729 l 270 729 l 270 229 l 535 729 z"},"Й":{"x_min":92,"x_max":745,"ha":837,"o":"m 535 729 l 745 729 l 745 0 l 567 0 l 567 500 l 302 0 l 92 0 l 92 729 l 270 729 l 270 229 l 535 729 z m 238 927 l 238 927 l 308 927 q 318 897 342 883 q 365 868 402 868 l 402 868 q 439 868 463 883 q 486 897 497 927 l 497 927 l 566 927 q 559 864 517 831 q 475 798 402 798 l 402 798 q 330 798 288 831 q 246 864 238 927 z"},"К":{"x_min":92,"x_max":803,"ha":817,"o":"m 92 0 l 92 729 l 280 729 l 280 428 l 574 729 l 787 729 l 497 434 l 803 0 l 596 0 l 376 311 l 280 212 l 280 0 l 92 0 z"},"Л":{"x_min":46,"x_max":739,"ha":831,"o":"m 46 0 l 46 0 l 46 142 q 170 156 195 237 q 220 317 220 591 l 220 591 l 220 729 l 739 729 l 739 0 l 551 0 l 551 587 l 408 587 l 408 542 q 408 275 360 151 q 313 27 46 0 z"},"М":{"x_min":92,"x_max":903,"ha":995,"o":"m 92 0 l 92 729 l 331 729 l 497 339 l 664 729 l 903 729 l 903 0 l 725 0 l 725 533 l 557 140 l 438 140 l 270 533 l 270 0 l 92 0 z"},"Н":{"x_min":92,"x_max":745,"ha":837,"o":"m 92 0 l 92 729 l 280 729 l 280 451 l 557 451 l 557 729 l 745 729 l 745 0 l 557 0 l 557 309 l 280 309 l 280 0 l 92 0 z"},"О":{"x_min":50,"x_max":800,"ha":850,"o":"m 425 606 l 425 606 q 339 606 292 542 q 244 479 244 364 l 244 364 q 244 249 292 186 q 339 122 425 122 l 425 122 q 511 122 559 186 q 606 249 606 364 l 606 364 q 606 479 559 542 q 511 606 425 606 z m 425 742 l 425 742 q 601 742 700 642 q 800 541 800 364 l 800 364 q 800 187 700 86 q 601 -14 425 -14 l 425 -14 q 250 -14 150 86 q 50 187 50 364 l 50 364 q 50 541 150 642 q 250 742 425 742 z"},"П":{"x_min":92,"x_max":745,"ha":837,"o":"m 92 729 l 745 729 l 745 0 l 557 0 l 557 587 l 280 587 l 280 0 l 92 0 l 92 729 z"},"Р":{"x_min":92,"x_max":692,"ha":733,"o":"m 92 0 l 92 729 l 404 729 q 543 729 617 667 q 692 605 692 491 l 692 491 q 692 376 617 315 q 543 253 404 253 l 404 253 l 280 253 l 280 0 l 92 0 z m 384 593 l 280 593 l 280 389 l 384 389 q 438 389 468 416 q 498 442 498 491 l 498 491 q 498 540 468 566 q 438 593 384 593 l 384 593 z"},"С":{"x_min":50,"x_max":670,"ha":734,"o":"m 670 191 l 670 40 q 618 13 562 0 q 506 -14 445 -14 l 445 -14 q 263 -14 156 88 q 50 189 50 364 l 50 364 q 50 539 156 640 q 263 742 445 742 l 445 742 q 506 742 562 729 q 618 715 670 688 l 670 688 l 670 537 q 618 573 567 589 q 516 606 460 606 l 460 606 q 359 606 302 542 q 244 477 244 364 l 244 364 q 244 251 302 187 q 359 122 460 122 l 460 122 q 516 122 567 139 q 618 155 670 191 l 670 191 z"},"Т":{"x_min":5,"x_max":677,"ha":682,"o":"m 5 587 l 5 729 l 677 729 l 677 587 l 435 587 l 435 0 l 247 0 l 247 587 l 5 587 z"},"У":{"x_min":29,"x_max":741,"ha":771,"o":"m 741 729 l 455 121 q 435 80 406 53 l 406 53 q 348 0 182 0 l 182 0 l 147 0 l 147 142 l 199 142 q 268 142 284 176 l 284 176 q 288 183 291 190 l 291 190 l 29 729 l 225 729 l 387 397 l 544 729 l 741 729 z"},"Ф":{"x_min":50,"x_max":941,"ha":992,"o":"m 244 372 l 244 372 q 244 298 282 266 q 320 233 402 226 l 402 226 l 402 518 q 320 511 282 478 q 244 445 244 372 z m 748 372 l 748 372 q 748 445 710 478 q 672 511 590 518 l 590 518 l 590 226 q 672 233 710 266 q 748 298 748 372 z m 402 657 l 402 729 l 590 729 l 590 657 q 769 642 855 575 q 941 508 941 372 l 941 372 q 941 235 855 168 q 769 102 590 87 l 590 87 l 590 0 l 402 0 l 402 87 q 223 102 136 168 q 50 235 50 372 l 50 372 q 50 508 136 575 q 223 642 402 657 l 402 657 z"},"Х":{"x_min":19,"x_max":751,"ha":771,"o":"m 741 729 l 498 372 l 751 0 l 555 0 l 385 249 l 216 0 l 19 0 l 272 372 l 29 729 l 225 729 l 385 494 l 544 729 l 741 729 z"},"Ц":{"x_min":92,"x_max":868,"ha":928,"o":"m 726 -157 l 726 0 l 92 0 l 92 729 l 280 729 l 280 142 l 557 142 l 557 729 l 745 729 l 745 142 l 868 142 l 868 -157 l 726 -157 z"},"Ч":{"x_min":81,"x_max":716,"ha":808,"o":"m 716 0 l 528 0 l 528 278 l 273 278 q 181 278 131 335 q 81 393 81 505 l 81 505 l 81 729 l 269 729 l 269 595 q 269 479 287 450 q 305 420 351 420 l 351 420 l 528 420 l 528 729 l 716 729 l 716 0 z"},"Ш":{"x_min":92,"x_max":1143,"ha":1235,"o":"m 711 729 l 711 142 l 955 142 l 955 729 l 1143 729 l 1143 0 l 92 0 l 92 729 l 280 729 l 280 142 l 523 142 l 523 729 l 711 729 z"},"Щ":{"x_min":92,"x_max":1266,"ha":1326,"o":"m 1143 729 l 1143 142 l 1266 142 l 1266 -157 l 1124 -157 l 1124 0 l 92 0 l 92 729 l 280 729 l 280 142 l 523 142 l 523 729 l 711 729 l 711 142 l 955 142 l 955 729 l 1143 729 z"},"Ъ":{"x_min":49,"x_max":890,"ha":939,"o":"m 478 128 l 588 128 q 647 128 674 151 q 702 174 702 219 l 702 219 q 702 264 675 286 q 647 309 588 309 l 588 309 l 478 309 l 478 128 z m 290 0 l 290 587 l 49 587 l 49 729 l 478 729 l 478 451 l 602 451 q 740 451 815 397 q 890 342 890 225 l 890 225 q 890 109 815 54 q 740 0 602 0 l 602 0 l 290 0 z"},"Ы":{"x_min":92,"x_max":944,"ha":1036,"o":"m 280 128 l 390 128 q 449 128 476 150 l 476 150 q 504 174 504 219 l 504 219 q 504 264 476 287 l 476 287 q 450 309 390 309 l 390 309 l 280 309 l 280 128 z m 692 225 l 692 225 q 692 109 621 57 l 621 57 q 542 0 404 0 l 404 0 l 92 0 l 92 729 l 280 729 l 280 451 l 404 451 q 542 451 621 394 l 621 394 q 692 342 692 225 z m 756 0 l 756 729 l 944 729 l 944 0 l 756 0 z"},"Ь":{"x_min":92,"x_max":692,"ha":762,"o":"m 280 128 l 390 128 q 449 128 476 150 l 476 150 q 504 174 504 219 l 504 219 q 504 264 476 287 l 476 287 q 450 309 390 309 l 390 309 l 280 309 l 280 128 z m 692 225 l 692 225 q 692 109 621 57 l 621 57 q 542 0 404 0 l 404 0 l 92 0 l 92 729 l 280 729 l 280 451 l 404 451 q 542 451 621 394 l 621 394 q 692 342 692 225 z"},"Э":{"x_min":64,"x_max":684,"ha":734,"o":"m 64 40 l 64 191 q 165 122 270 122 l 270 122 q 375 122 425 178 q 474 234 482 293 l 482 293 l 154 293 l 154 435 l 482 435 q 474 494 425 550 q 375 606 270 606 l 270 606 q 165 606 64 537 l 64 537 l 64 688 q 168 742 289 742 l 289 742 q 471 742 578 640 q 684 539 684 364 q 684 189 578 88 q 471 -14 289 -14 l 289 -14 q 168 -14 64 40 l 64 40 z"},"Ю":{"x_min":92,"x_max":1119,"ha":1174,"o":"m 280 435 l 373 435 q 387 558 478 650 l 478 650 q 568 742 744 742 l 744 742 q 919 742 1019 642 q 1119 541 1119 364 l 1119 364 q 1119 187 1019 86 q 919 -14 744 -14 l 744 -14 q 568 -14 478 78 l 478 78 q 387 170 373 293 l 373 293 l 280 293 l 280 0 l 92 0 l 92 729 l 280 729 l 280 435 z m 744 606 l 744 606 q 658 606 610 542 q 563 479 563 364 l 563 364 q 563 249 610 186 q 658 122 744 122 l 744 122 q 830 122 877 186 q 925 249 925 364 l 925 364 q 925 479 877 542 q 830 606 744 606 z"},"Я":{"x_min":64,"x_max":678,"ha":770,"o":"m 286 500 l 286 500 q 286 450 312 428 q 337 406 396 406 l 396 406 l 490 406 l 490 593 l 396 593 q 337 593 312 571 q 286 550 286 500 z m 264 0 l 64 0 l 246 310 q 208 331 153 383 q 98 436 98 508 l 98 508 q 98 618 165 673 q 232 729 376 729 l 376 729 l 678 729 l 678 0 l 490 0 l 490 276 l 426 276 l 264 0 z"},"а":{"x_min":43,"x_max":596,"ha":675,"o":"m 420 246 l 329 246 q 274 246 247 228 q 219 209 219 173 l 219 173 q 219 140 241 121 q 264 102 303 102 l 303 102 q 353 102 386 137 q 420 173 420 226 l 420 226 l 420 246 z m 596 312 l 596 312 l 596 0 l 420 0 l 420 81 q 385 31 341 9 q 297 -14 234 -14 l 234 -14 q 149 -14 96 35 q 43 85 43 164 l 43 164 q 43 260 109 305 q 175 350 317 350 l 317 350 l 420 350 l 420 364 q 420 405 387 425 q 354 444 285 444 l 285 444 q 229 444 181 433 q 132 421 91 399 l 91 399 l 91 532 q 147 546 204 553 q 260 560 317 560 l 317 560 q 465 560 531 502 q 596 443 596 312 z"},"б":{"x_min":43,"x_max":655,"ha":698,"o":"m 54 303 l 54 303 l 50 385 q 43 417 43 450 l 43 450 q 43 546 71 608 l 71 608 q 124 724 193 747 l 193 747 q 251 767 491 786 l 491 786 q 515 788 543 792 l 543 792 l 582 684 q 545 674 354 658 l 354 658 q 271 650 237 627 l 237 627 q 180 588 176 516 l 176 516 q 248 560 355 560 l 355 560 q 497 560 576 484 q 655 408 655 273 l 655 273 q 655 138 576 62 q 497 -14 355 -14 l 355 -14 q 214 -14 134 62 q 54 138 54 273 l 54 273 q 54 292 54 303 z m 355 435 l 355 435 q 297 435 267 393 q 236 352 236 273 l 236 273 q 236 194 267 153 q 297 111 355 111 l 355 111 q 413 111 443 153 q 473 194 473 273 l 473 273 q 473 352 443 393 q 413 435 355 435 z"},"в":{"x_min":84,"x_max":589,"ha":633,"o":"m 259 341 l 341 341 q 372 341 387 353 q 403 366 403 390 l 403 390 q 403 415 387 427 q 372 439 341 439 l 341 439 l 259 439 l 259 341 z m 259 109 l 347 109 q 386 109 405 125 q 425 140 425 171 l 425 171 q 425 201 405 216 q 386 231 347 231 l 347 231 l 259 231 l 259 109 z m 84 0 l 84 547 l 334 547 q 456 547 510 512 q 565 478 565 402 l 565 402 q 565 362 545 334 q 525 306 487 292 l 487 292 q 536 279 562 244 q 589 208 589 157 l 589 157 q 589 78 532 39 q 475 0 358 0 l 358 0 l 84 0 z"},"г":{"x_min":84,"x_max":499,"ha":522,"o":"m 259 0 l 84 0 l 84 547 l 499 547 l 499 439 l 259 439 l 259 0 z"},"д":{"x_min":56,"x_max":751,"ha":808,"o":"m 56 125 l 85 125 q 141 144 165 205 q 188 267 188 443 l 188 443 l 188 547 l 661 547 l 661 125 l 751 125 l 751 -138 l 626 -138 l 626 0 l 181 0 l 181 -138 l 56 -138 l 56 125 z m 486 125 l 486 422 l 363 422 l 363 407 q 363 228 322 125 l 322 125 l 486 125 z"},"е":{"x_min":43,"x_max":630,"ha":678,"o":"m 630 275 l 630 275 l 630 225 l 221 225 q 228 164 266 133 q 304 102 372 102 l 372 102 q 427 102 485 118 q 543 135 604 168 l 604 168 l 604 33 q 542 10 480 -2 q 418 -14 356 -14 l 356 -14 q 208 -14 125 61 q 43 137 43 273 l 43 273 q 43 407 124 483 q 205 560 346 560 l 346 560 q 475 560 552 482 q 630 405 630 275 z m 223 333 l 450 333 q 450 383 421 413 q 392 444 345 444 l 345 444 q 294 444 263 415 q 231 387 223 333 l 223 333 z"},"ё":{"x_min":43,"x_max":630,"ha":678,"o":"m 630 275 l 630 275 l 630 225 l 221 225 q 228 164 266 133 q 304 102 372 102 l 372 102 q 427 102 485 118 q 543 135 604 168 l 604 168 l 604 33 q 542 10 480 -2 q 418 -14 356 -14 l 356 -14 q 208 -14 125 61 q 43 137 43 273 l 43 273 q 43 407 124 483 q 205 560 346 560 l 346 560 q 475 560 552 482 q 630 405 630 275 z m 223 333 l 450 333 q 450 383 421 413 q 392 444 345 444 l 345 444 q 294 444 263 415 q 231 387 223 333 l 223 333 z m 192 654 l 192 774 l 307 774 l 307 654 l 192 654 z m 385 654 l 385 774 l 500 774 l 500 654 l 385 654 z"},"ж":{"x_min":15,"x_max":980,"ha":995,"o":"m 195 0 l 15 0 l 262 325 l 34 547 l 225 547 l 410 367 l 410 547 l 585 547 l 585 367 l 770 547 l 961 547 l 733 325 l 980 0 l 800 0 l 629 224 l 585 181 l 585 0 l 410 0 l 410 181 l 366 224 l 195 0 z"},"з":{"x_min":49,"x_max":518,"ha":581,"o":"m 141 233 l 141 341 l 221 341 q 292 341 319 356 q 345 372 345 394 l 345 394 q 345 444 229 444 l 229 444 q 133 444 74 410 l 74 410 l 74 537 q 163 560 268 560 l 268 560 q 391 560 447 525 q 504 490 504 417 l 504 417 q 504 320 397 295 l 397 295 q 518 265 518 155 l 518 155 q 518 71 451 28 q 385 -14 243 -14 l 243 -14 q 137 -14 49 13 l 49 13 l 49 148 q 158 102 223 102 l 223 102 q 294 102 326 121 q 358 141 358 165 l 358 165 q 358 233 218 233 l 218 233 l 141 233 z"},"и":{"x_min":84,"x_max":617,"ha":701,"o":"m 435 547 l 617 547 l 617 0 l 442 0 l 442 291 l 266 0 l 84 0 l 84 547 l 259 547 l 259 256 l 435 547 z"},"й":{"x_min":84,"x_max":617,"ha":701,"o":"m 435 547 l 617 547 l 617 0 l 442 0 l 442 291 l 266 0 l 84 0 l 84 547 l 259 547 l 259 256 l 435 547 z m 187 765 l 187 765 l 256 765 q 262 730 286 712 q 310 694 351 694 l 351 694 q 391 694 415 712 q 439 730 445 765 l 445 765 l 515 765 q 512 694 469 657 q 427 620 351 620 l 351 620 q 274 620 232 657 q 189 694 187 765 z"},"к":{"x_min":84,"x_max":664,"ha":679,"o":"m 84 0 l 84 547 l 259 547 l 259 362 l 454 547 l 645 547 l 412 325 l 664 0 l 483 0 l 308 226 l 259 179 l 259 0 l 84 0 z"},"л":{"x_min":55,"x_max":648,"ha":732,"o":"m 55 0 l 55 0 l 55 125 q 142 143 161 200 l 161 200 q 176 243 176 458 l 176 458 l 176 547 l 648 547 l 648 0 l 474 0 l 474 422 l 351 422 l 351 404 q 351 189 317 127 l 317 127 q 249 0 55 0 z"},"м":{"x_min":84,"x_max":733,"ha":817,"o":"m 84 0 l 84 547 l 285 547 l 408 273 l 531 547 l 733 547 l 733 0 l 559 0 l 559 310 l 466 105 l 352 105 l 259 310 l 259 0 l 84 0 z"},"н":{"x_min":84,"x_max":607,"ha":691,"o":"m 84 0 l 84 547 l 259 547 l 259 339 l 432 339 l 432 547 l 607 547 l 607 0 l 432 0 l 432 231 l 259 231 l 259 0 l 84 0 z"},"о":{"x_min":43,"x_max":644,"ha":687,"o":"m 344 435 l 344 435 q 286 435 256 393 q 225 352 225 273 l 225 273 q 225 194 256 153 q 286 111 344 111 l 344 111 q 401 111 432 153 q 462 194 462 273 l 462 273 q 462 352 432 393 q 401 435 344 435 z m 344 560 l 344 560 q 485 560 565 484 q 644 408 644 273 l 644 273 q 644 138 565 62 q 485 -14 344 -14 l 344 -14 q 203 -14 123 62 q 43 138 43 273 l 43 273 q 43 408 123 484 q 203 560 344 560 z"},"п":{"x_min":84,"x_max":607,"ha":691,"o":"m 84 547 l 607 547 l 607 0 l 432 0 l 432 422 l 259 422 l 259 0 l 84 0 l 84 547 z"},"р":{"x_min":84,"x_max":671,"ha":716,"o":"m 259 79 l 259 79 l 259 -208 l 84 -208 l 84 547 l 259 547 l 259 467 q 295 515 339 537 q 383 560 440 560 l 440 560 q 541 560 606 480 q 671 399 671 273 l 671 273 q 671 146 606 66 q 541 -14 440 -14 l 440 -14 q 383 -14 339 9 q 295 31 259 79 z m 375 433 l 375 433 q 319 433 289 392 q 259 351 259 273 l 259 273 q 259 195 289 154 q 319 113 375 113 l 375 113 q 431 113 461 154 q 490 195 490 273 l 490 273 q 490 351 461 392 q 431 433 375 433 z"},"с":{"x_min":43,"x_max":526,"ha":593,"o":"m 526 530 l 526 530 l 526 387 q 490 412 454 423 q 418 435 380 435 l 380 435 q 307 435 266 392 q 225 350 225 273 l 225 273 q 225 196 266 154 q 307 111 380 111 l 380 111 q 421 111 458 123 q 495 135 526 159 l 526 159 l 526 16 q 485 1 443 -7 q 400 -14 358 -14 l 358 -14 q 210 -14 126 62 q 43 138 43 273 l 43 273 q 43 408 126 484 q 210 560 358 560 l 358 560 q 401 560 443 552 q 484 545 526 530 z"},"т":{"x_min":4,"x_max":575,"ha":580,"o":"m 4 439 l 4 547 l 575 547 l 575 439 l 377 439 l 377 0 l 203 0 l 203 439 l 4 439 z"},"у":{"x_min":12,"x_max":634,"ha":652,"o":"m 256 -21 l 12 547 l 187 547 l 334 176 l 459 547 l 634 547 l 404 -52 q 369 -143 323 -179 q 277 -216 201 -216 l 201 -216 l 100 -216 l 100 -101 l 155 -101 q 199 -101 219 -87 q 240 -73 251 -36 l 251 -36 l 256 -21 z"},"ф":{"x_min":55,"x_max":937,"ha":992,"o":"m 327 433 l 327 433 q 295 433 265 392 q 236 351 236 273 l 236 273 q 236 195 265 154 q 295 113 327 113 l 327 113 q 379 113 409 149 l 409 149 l 409 397 q 379 433 327 433 z m 409 524 l 409 760 l 583 760 l 583 524 q 635 560 706 560 l 706 560 q 807 560 872 480 q 937 399 937 273 l 937 273 q 937 146 872 66 q 807 -14 706 -14 l 706 -14 q 635 -14 583 21 l 583 21 l 583 -208 l 409 -208 l 409 21 q 357 -14 286 -14 l 286 -14 q 185 -14 120 66 q 55 146 55 273 l 55 273 q 55 399 120 480 q 185 560 286 560 l 286 560 q 357 560 409 524 l 409 524 z m 666 433 l 666 433 q 613 433 583 397 l 583 397 l 583 149 q 613 113 666 113 l 666 113 q 697 113 727 154 q 756 195 756 273 l 756 273 q 756 351 727 392 q 697 433 666 433 z"},"х":{"x_min":15,"x_max":630,"ha":645,"o":"m 15 0 l 222 280 l 25 547 l 210 547 l 322 385 l 435 547 l 620 547 l 423 281 l 630 0 l 445 0 l 322 173 l 200 0 l 15 0 z"},"ц":{"x_min":84,"x_max":698,"ha":741,"o":"m 698 -138 l 573 -138 l 573 0 l 84 0 l 84 547 l 259 547 l 259 125 l 432 125 l 432 547 l 607 547 l 607 125 l 698 125 l 698 -138 z"},"ч":{"x_min":64,"x_max":573,"ha":687,"o":"m 573 0 l 398 0 l 398 211 l 219 211 q 146 211 105 255 q 64 298 64 383 l 64 383 l 64 547 l 239 547 l 239 450 q 239 363 253 341 q 268 319 305 319 l 305 319 l 398 319 l 398 547 l 573 547 l 573 0 z"},"ш":{"x_min":84,"x_max":972,"ha":1062,"o":"m 615 547 l 615 125 l 797 125 l 797 547 l 972 547 l 972 0 l 84 0 l 84 547 l 259 547 l 259 125 l 440 125 l 440 547 l 615 547 z"},"щ":{"x_min":84,"x_max":1063,"ha":1105,"o":"m 938 -138 l 938 0 l 84 0 l 84 547 l 259 547 l 259 125 l 440 125 l 440 547 l 615 547 l 615 125 l 797 125 l 797 547 l 972 547 l 972 125 l 1063 125 l 1063 -138 l 938 -138 z"},"ъ":{"x_min":20,"x_max":711,"ha":751,"o":"m 382 109 l 470 109 q 509 109 528 125 q 548 140 548 171 l 548 171 q 548 201 529 216 q 509 231 470 231 l 470 231 l 382 231 l 382 109 z m 481 0 l 207 0 l 207 439 l 20 439 l 20 547 l 382 547 l 382 339 l 481 339 q 592 339 652 299 q 711 258 711 169 q 711 80 651 40 q 591 0 481 0 l 481 0 z"},"ы":{"x_min":84,"x_max":823,"ha":904,"o":"m 648 0 l 648 547 l 823 547 l 823 0 l 648 0 z m 425 171 l 425 171 q 425 202 405 217 l 405 217 q 386 231 347 231 l 347 231 l 259 231 l 259 109 l 347 109 q 386 109 405 125 l 405 125 q 425 140 425 171 z m 84 0 l 84 547 l 259 547 l 259 339 l 358 339 q 469 339 528 299 l 528 299 q 588 258 588 169 l 588 169 q 588 80 528 40 l 528 40 q 469 0 358 0 l 358 0 l 84 0 z"},"ь":{"x_min":84,"x_max":588,"ha":632,"o":"m 425 171 l 425 171 q 425 202 405 217 l 405 217 q 386 231 347 231 l 347 231 l 259 231 l 259 109 l 347 109 q 386 109 405 125 l 405 125 q 425 140 425 171 z m 84 0 l 84 547 l 259 547 l 259 339 l 358 339 q 469 339 528 299 l 528 299 q 588 258 588 169 l 588 169 q 588 80 528 40 l 528 40 q 469 0 358 0 l 358 0 l 84 0 z"},"э":{"x_min":67,"x_max":550,"ha":593,"o":"m 131 226 l 131 324 l 362 324 q 356 360 321 398 q 286 435 211 435 q 137 435 67 387 l 67 387 l 67 530 q 150 560 235 560 l 235 560 q 383 560 466 484 q 550 408 550 273 q 550 138 466 62 q 383 -14 235 -14 l 235 -14 q 149 -14 67 16 l 67 16 l 67 159 q 130 111 208 111 l 208 111 q 284 111 320 147 q 357 184 363 226 l 363 226 l 131 226 z"},"ю":{"x_min":84,"x_max":928,"ha":972,"o":"m 84 0 l 84 547 l 259 547 l 259 328 l 330 328 q 340 421 413 491 l 413 491 q 486 560 628 560 l 628 560 q 769 560 848 484 q 928 408 928 273 l 928 273 q 928 138 848 62 q 769 -14 628 -14 l 628 -14 q 486 -14 413 56 l 413 56 q 340 126 331 220 l 331 220 l 259 220 l 259 0 l 84 0 z m 628 435 l 628 435 q 570 435 539 393 q 509 352 509 273 l 509 273 q 509 194 539 153 q 570 111 628 111 l 628 111 q 685 111 715 153 q 746 194 746 273 l 746 273 q 746 352 715 393 q 685 435 628 435 z"},"я":{"x_min":31,"x_max":560,"ha":642,"o":"m 239 374 l 239 374 q 239 339 258 323 q 277 308 322 308 l 322 308 l 385 308 l 385 440 l 322 440 q 277 440 258 425 q 239 410 239 374 z m 201 0 l 31 0 l 174 234 q 132 258 102 300 q 71 341 71 393 l 71 393 q 71 471 123 509 q 176 547 293 547 l 293 547 l 560 547 l 560 0 l 385 0 l 385 200 l 323 200 l 201 0 z"},"·":{"x_min":102,"x_max":278,"ha":380,"o":"m 102 253 l 102 442 l 278 442 l 278 253 l 102 253 z"},"•":{"x_min":144,"x_max":495,"ha":639,"o":"m 144 372 l 144 372 q 144 408 157 440 q 170 472 195 496 l 195 496 q 221 521 252 534 q 284 547 320 547 l 320 547 q 355 547 387 534 q 419 521 444 496 l 444 496 q 469 471 482 439 q 495 408 495 372 l 495 372 q 495 336 482 304 q 469 272 444 247 l 444 247 q 419 222 387 209 q 355 196 319 196 l 319 196 q 283 196 251 209 q 220 222 195 247 l 195 247 q 170 272 157 304 q 144 336 144 372 z"},"–":{"x_min":54,"x_max":446,"ha":500,"o":"m 54 211 l 54 337 l 446 337 l 446 211 l 54 211 z"},"—":{"x_min":54,"x_max":946,"ha":1000,"o":"m 54 211 l 54 337 l 946 337 l 946 211 l 54 211 z"},"…":{"x_min":79,"x_max":921,"ha":1000,"o":"m 745 0 l 745 189 l 921 189 l 921 0 l 745 0 z m 79 0 l 79 189 l 255 189 l 255 0 l 79 0 z m 412 0 l 412 189 l 588 189 l 588 0 l 412 0 z"}}}
